<svg version="1.1" xmlns="http://www.w3.org/2000/svg" xmlns:xlink="http://www.w3.org/1999/xlink" viewBox="0 0 226 226">
  <g
    fill="none"
    fill-rule="nonzero"
    stroke="none"
    stroke-width="1"
    stroke-linecap="butt"
    stroke-linejoin="miter"
    stroke-miterlimit="10"
    stroke-dasharray=""
    stroke-dashoffset="0"
    font-family="none"
    font-weight="none"
    font-size="none"
    text-anchor="none"
    style="mix-blend-mode: normal"
  >
    <path d="M0,226v-226h226v226z" fill="none"></path>
    <g>
      <path
        d="M123.59375,38.84375h-35.3125v21.1875h10.59375l10.59375,14.125l3.53125,-14.125h10.59375z"
        fill="#526273"
      ></path>
      <path
        d="M52.96875,10.59375l5.45578,11.62488l12.20047,1.8645l-8.82812,9.04706l2.08344,12.77606l-10.91156,-6.03138l-10.91156,6.03138l2.08344,-12.77606l-8.82812,-9.04706l12.20047,-1.8645z"
        fill="#e66f67"
      ></path>
      <path
        d="M198.60809,143.31931l-4.99672,4.99319l-4.99319,-4.99319c-2.75791,-2.75791 -7.22847,-2.75791 -9.98638,0c-2.75791,2.75791 -2.75791,7.22847 0,9.98638l14.98309,14.98309l14.98309,-14.98309c2.75791,-2.75791 2.75791,-7.22847 0,-9.98638c-2.76144,-2.75791 -7.232,-2.75791 -9.98991,0z"
        fill="#e66f67"
      ></path>
      <path
        d="M63.5625,105.9375c0,9.79216 -4.98966,18.42606 -12.55713,23.47928c-4.48822,3.01216 -9.8875,4.77072 -15.69287,4.77072c-5.80538,0 -11.20466,-1.75856 -15.69287,-4.77072c-7.56747,-5.05322 -12.55712,-13.68713 -12.55712,-23.47928c0,-15.60106 12.64894,-28.25 28.25,-28.25c15.60106,0 28.25,12.64894 28.25,28.25z"
        fill="#526273"
      ></path>
      <circle cx="10" cy="29" transform="scale(3.53125,3.53125)" r="3" fill="#e67e22"></circle>
      <path
        d="M38.84375,113h-3.53125h-3.53125c-7.80406,0 -14.125,6.32094 -14.125,14.125v0.80159c0.63916,0.51556 1.27831,1.03113 1.96337,1.49019c4.48822,3.01216 9.8875,4.77072 15.69288,4.77072c5.80537,0 11.20466,-1.75856 15.69287,-4.77072c0.68506,-0.45553 1.32069,-0.97463 1.96338,-1.49019v-0.80159c0,-7.80406 -6.32094,-14.125 -14.125,-14.125z"
        fill="#e67e22"
      ></path>
      <path
        d="M88.28125,141.25v24.71875l10.59375,7.0625v45.90625h28.25v-45.90625l10.59375,-7.0625v-24.71875c0,-7.80053 -6.32447,-14.125 -14.125,-14.125h-21.1875c-7.80053,0 -14.125,6.32447 -14.125,14.125z"
        fill="#759acc"
      ></path>
      <path
        d="M98.875,213.03678v5.90072h28.25v-29.46828c-7.55334,9.7745 -17.19012,17.85047 -28.25,23.56756z"
        fill="#6787b3"
      ></path>
      <circle cx="32" cy="32" transform="scale(3.53125,3.53125)" r="4" fill="#759acc"></circle>
      <path
        d="M150.51953,152.80072l-4.41759,-5.51228c12.62775,-10.11703 19.86681,-25.19194 19.86681,-41.35094c0,-21.69953 -12.995,-40.97662 -33.10547,-49.11969l2.64844,-6.54694c22.79422,9.22716 37.51953,31.07853 37.51953,55.66663c0,18.31659 -8.20309,35.39372 -22.51172,46.86322z"
        fill="#858e99"
      ></path>
      <path
        d="M67.11494,79.45313l-6.11259,-3.53125c3.75019,-6.48337 8.61978,-12.15103 14.47813,-16.84759l4.41759,5.51228c-5.16975,4.14216 -9.47081,9.14594 -12.78313,14.86656z"
        fill="#858e99"
      ></path>
      <path
        d="M75.48047,152.80072c-5.85481,-4.69303 -10.72794,-10.36069 -14.47813,-16.84759l6.11259,-3.53478c3.31231,5.72416 7.60984,10.72441 12.77959,14.87009z"
        fill="#858e99"
      ></path>
      <path
        d="M86.7275,194.08103c-25.00831,-7.15078 -46.26644,-24.52806 -58.32919,-47.66834l6.26091,-3.26641c11.17287,21.43116 30.85606,37.52306 54.00694,44.14416z"
        fill="#858e99"
      ></path>
      <path
        d="M138.66866,194.25406l-1.89628,-6.80472c13.54234,-3.77844 26.16303,-10.87625 36.49194,-20.53069l4.82016,5.15916c-11.15522,10.42778 -24.78584,18.09412 -39.41581,22.17625z"
        fill="#858e99"
      ></path>
      <path
        d="M203.74606,131.74034l-6.71997,-2.16819c2.82147,-8.74691 4.25516,-17.88578 4.25516,-27.16591c0,-8.07244 -1.08763,-16.07072 -3.23816,-23.76884l6.80472,-1.89628c2.32003,8.31256 3.49594,16.95 3.49594,25.66513c0,10.01816 -1.54669,19.888 -4.59769,29.33409z"
        fill="#858e99"
      ></path>
      <path
        d="M150.35003,22.38813c-11.73081,-5.4805 -24.29853,-8.26312 -37.35003,-8.26312c-11.79084,0 -23.23562,2.28472 -34.013,6.79059l-2.72259,-6.51869c11.64606,-4.86606 24.00544,-7.33441 36.73559,-7.33441c14.09322,0 27.66734,3.00509 40.33747,8.93053z"
        fill="#858e99"
      ></path>
      <path
        d="M31.50581,68.39678l-6.51869,-2.72259c2.03753,-4.87313 4.50587,-9.61913 7.33441,-14.10028l5.97134,3.76784c-2.61666,4.14922 -4.90138,8.54209 -6.78706,13.05503z"
        fill="#858e99"
      ></path>
      <path
        d="M218.9375,35.3125c0,9.79216 -4.98966,18.42606 -12.55712,23.47928c-4.48822,3.01216 -9.8875,4.77072 -15.69288,4.77072c-5.80537,0 -11.20466,-1.75856 -15.69288,-4.77072c-7.56747,-5.05322 -12.55712,-13.68713 -12.55712,-23.47928c0,-15.60106 12.64894,-28.25 28.25,-28.25c15.60106,0 28.25,12.64894 28.25,28.25z"
        fill="#526273"
      ></path>
      <circle cx="54" cy="9" transform="scale(3.53125,3.53125)" r="3" fill="#e67e22"></circle>
      <path
        d="M194.21875,42.375h-3.53125h-3.53125c-7.80406,0 -14.125,6.32094 -14.125,14.125v0.80159c0.63916,0.51556 1.27831,1.03113 1.96337,1.49019c4.48822,3.01216 9.8875,4.77072 15.69288,4.77072c5.80537,0 11.20466,-1.75856 15.69288,-4.77072c0.68506,-0.45553 1.32069,-0.97462 1.96337,-1.49019v-0.80159c0,-7.80406 -6.32094,-14.125 -14.125,-14.125z"
        fill="#e67e22"
      ></path>
    </g>
  </g>
</svg>
