<svg
	width="40"
	height="40"
>
<g transform="translate(1 1)">
	<path d="M159.427,124.44c8.533-8.533,0-25.6-8.533-34.133c-8.533-8.533-37.547,22.187-25.6,34.133
		C133.827,132.973,150.893,132.973,159.427,124.44 M10.947,190.147C37.4,82.627,134.68,2.414,250.734,2.414h8.533l0,0v25.6v59.733
		v85.333v152.747v85.333v59.733v25.6l0,0c-2.56,0-5.973,0-8.533,0c-33.28-21.333-78.507-53.76-59.733-98.133
		c25.6-59.733,0-76.8-8.533-85.333c-8.533-8.533-25.6-8.533-17.067-34.133S191,261.827,191,219.16s-68.267-34.133-59.733-8.533
		c8.533,25.6-8.533,59.733-42.667,85.333S45.934,253.294,63,236.227c11.947-11.947-26.453-17.067-58.027-16.213l0,0
		C4.974,208.067,10.947,190.147,10.947,190.147"/>
	<path d="M259.267,173.934c38.4,4.267,68.267,36.693,68.267,75.947s-29.867,71.68-68.267,75.947V173.934z"/>
	<path d="M259.267,28.014C377.88,32.28,472.6,130.414,472.6,249.88s-94.72,217.6-213.333,221.867v-59.733
		c85.333-4.267,153.6-75.093,153.6-162.133S344.6,92.867,259.267,88.6V28.014z"/>
	<path d="M150.893,90.307c8.533,8.533,17.067,25.6,8.533,34.133c-8.533,8.533-25.6,8.533-34.133,0
		C113.347,111.64,142.36,81.773,150.893,90.307z M250.734,497.347c-30.72-0.853-58.88-6.827-58.88-6.827
		C84.334,464.067,4.12,366.787,4.12,250.734c0-10.24,0.853-18.773,1.707-29.013c31.573-1.707,69.12,4.267,58.027,16.213
		c-17.067,17.067-8.533,85.333,25.6,59.733c34.133-25.6,51.2-59.733,42.667-85.333s59.733-34.133,59.733,8.533
		S174.787,255,166.254,280.6c-8.533,25.6,8.533,25.6,17.067,34.133c8.533,8.533,34.133,25.6,8.533,85.333
		C172.227,443.587,217.454,476.014,250.734,497.347z"/>
	<path d="M259.267,87.747c85.333,4.267,153.6,75.093,153.6,161.28c0,87.04-68.267,157.013-153.6,162.133
		v-85.333c38.4-4.267,68.267-36.693,68.267-75.947s-29.867-71.68-68.267-75.947V87.747z"/>
	<path d="M472.6,249.88c0-119.467-94.72-217.6-213.333-221.867v-25.6
		C392.387,6.68,498.2,115.907,498.2,249.88s-105.813,243.2-238.933,247.467v-25.6C377.88,467.48,472.6,369.347,472.6,249.88"/>
</g>
<path d="M260.267,502.614h-8.533c-0.853,0-1.707,0-2.56-0.853c-24.747-15.36-82.773-52.907-61.44-103.253
	c22.187-52.053,4.267-69.12-5.12-78.507c-0.853-0.853-1.707-1.707-2.56-2.56c-1.707-1.707-4.267-3.413-6.827-4.267
	c-7.68-5.12-18.773-11.093-11.093-34.133c3.413-11.093,8.533-16.213,12.8-20.48c6.827-6.827,11.947-12.8,11.947-37.547
	c0-13.653-7.68-19.627-14.507-23.04c-11.947-5.12-28.16-2.56-34.133,3.413c-3.413,2.56-4.267,5.973-2.56,9.387
	c9.387,27.307-8.533,63.147-44.373,90.453c-17.067,12.8-27.307,4.267-30.72-0.853c-12.8-15.36-13.653-52.907,0-65.707
	c0.853-0.853,0.853-0.853,0.853-0.853c-1.707-3.413-23.893-8.533-52.053-7.68c-0.853,8.533-0.853,16.213-0.853,24.747
	c0,111.787,75.947,209.067,184.32,236.373c2.56,0.853,3.413,2.56,3.413,5.12c-0.853,2.56-2.56,3.413-5.12,3.413
	C78.507,467.627,0,367.787,0,251.733c0-10.24,0.853-18.773,1.707-29.013l0,0L6.827,192C34.987,79.36,134.827,0.853,250.88,0.853
	h8.533c2.56,0,4.267,1.707,4.267,4.267v494.933C264.534,500.907,262.827,502.614,260.267,502.614z M252.587,494.08H256V7.68h-4.267
	C139.947,7.68,42.667,83.627,15.36,192l-4.267,25.6c18.773,0,53.76,1.707,58.88,12.8c0.853,1.707,1.707,5.973-2.56,10.24
	c-10.24,10.24-9.387,42.667,0.853,53.76c1.707,1.707,6.827,8.533,19.627-0.853c32.427-24.747,49.493-57.173,40.96-80.213
	c-2.56-6.827-0.853-13.653,5.12-18.773c10.24-8.533,29.013-11.093,43.52-5.12c12.8,5.12,19.627,16.213,19.627,30.72
	c0,28.16-7.68,35.84-14.507,43.52c-4.267,4.267-8.533,8.533-11.093,17.92c-5.12,16.213,0,18.773,7.68,23.893
	c2.56,1.707,5.973,3.413,8.533,5.973c0.853,0.853,1.707,0.853,1.707,1.707c10.24,9.387,32.427,29.867,7.68,87.893
	C179.2,440.32,215.04,470.187,252.587,494.08z M294.4,499.2c-1.707,0-3.413-1.707-4.267-3.413c0-2.56,0.853-4.267,3.413-5.12
	c116.907-20.48,201.387-121.173,201.387-239.787S410.454,31.573,293.547,11.093c-2.56,0-4.267-2.56-3.413-5.12
	c0-2.56,2.56-4.267,5.12-3.413C415.574,23.893,503.467,128,503.467,250.88S415.574,477.867,294.4,499.2
	C295.254,499.2,294.4,499.2,294.4,499.2z M294.4,472.747c-1.707,0-3.413-1.707-4.267-3.413c-0.853-2.56,0.853-4.267,3.413-5.12
	c101.547-19.627,175.787-109.227,175.787-213.333S395.094,57.173,293.547,37.547c-2.56-0.853-3.413-2.56-3.413-5.12
	c0.853-2.56,2.56-4.267,5.12-3.413C401.067,49.493,477.867,143.36,477.867,250.88C477.867,359.254,401.067,452.267,294.4,472.747
	C295.254,472.747,294.4,472.747,294.4,472.747z M294.4,411.307c-1.707,0-3.413-0.853-4.267-3.413
	c-0.853-2.56,0.853-4.267,3.413-5.12C361.814,384,409.6,321.707,409.6,250.88S361.814,117.76,293.547,98.987
	c-2.56-0.853-3.413-2.56-3.413-5.12c0.853-2.56,2.56-3.413,5.12-3.413c72.533,19.627,122.88,85.333,122.88,160.427
	s-50.347,140.8-122.88,160.427H294.4z M294.4,319.147c-1.707,0-2.56-0.853-3.413-1.707c-1.707-1.707-0.853-4.267,0.853-5.973
	c20.48-13.653,32.427-35.84,32.427-60.587c0-23.893-11.947-46.933-32.427-60.587c-1.707-1.707-2.56-4.267-0.853-5.973
	c1.707-1.707,4.267-2.56,5.973-0.853c22.187,15.36,35.84,40.107,35.84,67.413s-13.653,52.053-35.84,67.413
	C296.107,319.147,295.254,319.147,294.4,319.147z M143.36,135.68c-7.68,0-15.36-2.56-20.48-7.68c-4.267-4.267-5.12-10.24-2.56-17.92
	c1.707-5.12,5.973-11.093,10.24-16.213c3.413-3.413,7.68-6.827,11.093-7.68c6.827-2.56,11.093,0,12.8,1.707
	c5.12,5.12,9.387,11.947,11.947,18.773c2.56,8.533,1.707,16.213-3.413,21.333C158.72,133.12,151.893,135.68,143.36,135.68z
	 M148.48,93.867c-0.853,0-1.707,0-2.56,0.853c-2.56,0.853-5.973,3.413-8.533,5.973c-4.267,4.267-6.827,8.533-8.533,12.8
	c-1.707,4.267-0.853,6.827,0.853,8.533c6.827,6.827,21.333,6.827,28.16,0c3.413-3.413,2.56-8.533,0.853-12.8
	C157.014,104.107,153.6,98.134,148.48,93.867C149.334,93.867,148.48,93.867,148.48,93.867z"/>
</svg>
